<?xml version="1.0" standalone="no"?><!DOCTYPE svg PUBLIC "-//W3C//DTD SVG 1.1//EN" "http://www.w3.org/Graphics/SVG/1.1/DTD/svg11.dtd"><svg t="1557026084997" class="icon" style="" viewBox="0 0 1024 1024" version="1.1" xmlns="http://www.w3.org/2000/svg" p-id="10138" xmlns:xlink="http://www.w3.org/1999/xlink" width="200" height="200"><defs><style type="text/css"></style></defs><path d="M808.96 476.16c-11.52-33.28-17.92-51.2-24.32-67.84-11.52-30.72-19.2-52.48-44.8-144.64-15.36-56.32-43.52-96-84.48-117.76 1.28-3.84 1.28-6.4 1.28-10.24 0-3.84-1.28-7.68-1.28-11.52 12.8-10.24 23.04-20.48 23.04-37.12 0-5.12-1.28-29.44-33.28-34.56C638.72 51.2 631.04 51.2 623.36 51.2c-7.68 0-16.64 0-24.32 1.28C588.8 53.76 576 57.6 568.32 67.84c-3.84 5.12-11.52 14.08-17.92 23.04-11.52 16.64-15.36 26.88-15.36 35.84 0 0-1.28 1.28-1.28 1.28l-10.24 0-21.76 0-1.28 0-1.28 0 0 0-6.4 0-3.84 0c-1.28 0-3.84-1.28-6.4-1.28 0 0 0-1.28 0-1.28 12.8-10.24 23.04-21.76 23.04-37.12 0-5.12-1.28-29.44-33.28-34.56C468.48 52.48 460.8 51.2 451.84 51.2c-7.68 0-16.64 0-24.32 1.28-10.24 1.28-23.04 3.84-30.72 14.08-3.84 5.12-11.52 14.08-17.92 23.04-11.52 17.92-15.36 26.88-15.36 35.84 0 5.12 1.28 12.8 5.12 17.92-12.8 7.68-25.6 16.64-35.84 26.88-21.76 23.04-38.4 53.76-49.92 90.88-25.6 92.16-34.56 113.92-44.8 144.64-6.4 16.64-12.8 34.56-24.32 67.84-17.92 52.48-23.04 131.84 11.52 197.12 16.64 30.72 40.96 55.04 72.96 72.96-10.24 14.08-17.92 29.44-23.04 46.08-3.84 12.8-3.84 28.16 2.56 39.68 6.4 12.8 16.64 21.76 30.72 26.88 5.12 1.28 11.52 2.56 16.64 2.56 6.4 0 14.08-1.28 20.48-3.84 0 0 0 0 0 1.28 11.52 35.84 11.52 42.24 10.24 48.64 0 2.56 0 6.4 0 10.24 0 34.56 32 56.32 62.72 56.32 12.8 0 26.88-2.56 37.12-8.96 8.96-5.12 16.64-11.52 21.76-20.48 7.68 1.28 16.64 2.56 29.44 2.56 1.28 0 2.56 0 5.12 0 1.28 0 3.84 0 5.12 0 12.8 0 21.76-1.28 29.44-2.56 5.12 7.68 11.52 15.36 21.76 20.48 10.24 5.12 24.32 8.96 37.12 8.96 14.08 0 28.16-5.12 39.68-12.8 14.08-10.24 23.04-26.88 23.04-43.52 0-3.84 0-7.68 0-10.24 0-6.4-1.28-12.8 10.24-48.64 0 0 0 0 0-1.28 6.4 2.56 12.8 3.84 20.48 3.84 5.12 0 11.52-1.28 16.64-2.56 12.8-3.84 24.32-14.08 30.72-26.88 6.4-12.8 7.68-26.88 2.56-39.68-5.12-16.64-14.08-32-23.04-46.08 30.72-16.64 55.04-40.96 72.96-72.96C832 608 826.88 528.64 808.96 476.16zM684.8 282.88c7.68 37.12-10.24 67.84-39.68 67.84-29.44 0-58.88-30.72-65.28-67.84-7.68-37.12 10.24-67.84 39.68-67.84C647.68 215.04 677.12 244.48 684.8 282.88zM668.16 734.72c19.2 12.8 38.4 34.56 49.92 67.84 3.84 11.52-2.56 23.04-12.8 26.88-2.56 1.28-3.84 1.28-6.4 1.28-8.96 0-19.2-5.12-21.76-14.08-7.68-23.04-10.24-37.12-35.84-46.08l0 8.96c12.8 11.52 17.92 35.84 6.4 70.4-16.64 51.2-10.24 52.48-10.24 67.84 0 15.36-16.64 25.6-30.72 25.6-15.36 0-33.28-6.4-33.28-21.76 0-8.96-3.84-11.52-8.96-11.52-3.84 0-8.96 1.28-14.08 2.56-6.4 1.28-15.36 3.84-30.72 3.84-1.28 0-2.56 0-5.12 0-1.28 0-3.84 0-5.12 0-15.36 0-24.32-2.56-30.72-3.84-5.12-1.28-10.24-2.56-14.08-2.56-5.12 0-8.96 2.56-8.96 11.52 0 15.36-19.2 21.76-34.56 21.76-15.36 0-30.72-10.24-30.72-25.6 0-15.36 5.12-16.64-11.52-67.84-11.52-34.56-2.56-58.88 5.12-70.4l-2.56 2.56 2.56-11.52c-12.8 8.96-26.88 23.04-34.56 46.08-2.56 8.96-11.52 14.08-20.48 14.08-2.56 0-3.84 0-6.4-1.28-11.52-3.84-16.64-15.36-12.8-26.88 11.52-33.28 30.72-53.76 49.92-67.84-126.72-32-139.52-163.84-111.36-248.32 30.72-93.44 29.44-70.4 70.4-213.76 20.48-72.96 58.88-98.56 94.72-108.8 7.68-10.24 17.92-25.6 17.92-28.16 0-5.12-30.72-2.56-30.72-7.68 0-5.12 19.2-30.72 25.6-39.68 2.56-2.56 16.64-5.12 30.72-5.12 11.52 0 23.04 1.28 23.04 5.12 0 6.4-33.28 28.16-33.28 34.56 0 6.4 12.8 8.96 12.8 14.08 0 2.56-7.68 12.8-15.36 20.48l1.28 0c6.4-1.28 12.8-2.56 19.2-2.56 12.8 0 23.04 0 30.72 0 1.28 0 2.56 0 3.84 0 2.56 0 5.12 0 6.4 0 0 0 0 0 0 0 1.28 0 1.28 0 1.28 0 0 0 1.28 0 1.28 0 2.56 0 8.96 0 21.76 0 3.84 0 6.4 0 10.24 0 7.68 0 17.92 0 30.72 0 6.4 0 12.8 1.28 19.2 1.28 6.4-7.68 14.08-17.92 14.08-20.48 0-5.12-30.72-2.56-30.72-7.68 0-5.12 19.2-30.72 25.6-39.68 2.56-2.56 16.64-5.12 30.72-5.12 11.52 0 23.04 1.28 23.04 5.12 0 6.4-33.28 28.16-33.28 34.56 0 6.4 12.8 8.96 12.8 14.08 0 3.84-12.8 16.64-20.48 24.32 0 0 0 0 0 0-6.4 0-11.52 0-17.92 2.56-61.44 14.08-96 92.16-78.08 174.08 19.2 81.92 83.2 136.96 145.92 122.88 42.24-10.24 72.96-49.92 80.64-101.12 16.64 53.76 21.76 60.16 44.8 129.28C807.68 570.88 794.88 701.44 668.16 734.72z" p-id="10139"></path><path d="M446.72 294.4c0-1.28 1.28-2.56 1.28-2.56 0-1.28 0-1.28 0-2.56 0-2.56 1.28-3.84 1.28-3.84l0 0c0 0 0-1.28 0-5.12 0-1.28 0-3.84 0-6.4 0-2.56 0-5.12 0-7.68 0-1.28 0-2.56 0-5.12 0-1.28 0-3.84-1.28-5.12 0-1.28-1.28-3.84-1.28-5.12 0-1.28 0-2.56-1.28-2.56 0-1.28 0-2.56-1.28-2.56-2.56-7.68-6.4-16.64-14.08-24.32-3.84-3.84-8.96-7.68-14.08-8.96-1.28-1.28-2.56-1.28-3.84-1.28-1.28 0-2.56-1.28-3.84-1.28-1.28 0-3.84 0-5.12-1.28-1.28 0-2.56-1.28-3.84-1.28L399.36 204.8l0 0c-1.28 0 0 0 0 0l0 0 0 1.28-2.56 1.28c-1.28 0-2.56 0-5.12 1.28-1.28 0-2.56 1.28-3.84 1.28-1.28 0-2.56 1.28-3.84 1.28-5.12 2.56-11.52 5.12-16.64 8.96-10.24 6.4-19.2 16.64-25.6 26.88-3.84 5.12-6.4 11.52-8.96 16.64 0 1.28-1.28 2.56-1.28 5.12l-1.28 5.12c0 1.28-1.28 2.56-1.28 5.12l-1.28 5.12c-1.28 6.4-2.56 12.8-2.56 19.2 0 3.84 0 6.4 0 10.24 0 3.84 1.28 6.4 1.28 10.24 1.28 6.4 3.84 12.8 7.68 19.2 3.84 6.4 8.96 11.52 15.36 15.36 1.28 1.28 2.56 1.28 5.12 2.56 1.28 1.28 3.84 1.28 5.12 2.56l1.28 0 1.28 0 2.56 1.28 2.56 0 2.56 0 2.56 0 1.28 0 0-1.28c0 0 1.28-1.28 1.28-1.28l0 0 0 1.28c1.28 0 3.84 1.28 5.12 1.28 1.28 0 3.84 0 5.12 0l2.56 0c1.28 0 1.28 0 2.56 0 12.8-3.84 21.76-10.24 29.44-16.64 7.68-6.4 12.8-14.08 17.92-21.76 2.56-3.84 3.84-6.4 5.12-10.24 1.28-1.28 1.28-2.56 2.56-5.12 0-1.28 1.28-2.56 1.28-3.84C445.44 299.52 445.44 296.96 446.72 294.4zM430.08 266.24c0 2.56 0 3.84 0 6.4 0 1.28 0 3.84-1.28 5.12 0 1.28 0 2.56-1.28 3.84 0 0 0 1.28-1.28 3.84 0 1.28 0 1.28 0 2.56 0 1.28 0 1.28-1.28 2.56-1.28 1.28-1.28 3.84-2.56 5.12-1.28 3.84-5.12 8.96-7.68 15.36-3.84 5.12-7.68 11.52-14.08 16.64-1.28 1.28-2.56 2.56-3.84 3.84-1.28 1.28-2.56 2.56-5.12 3.84-1.28 0-1.28 1.28-2.56 1.28l-1.28 1.28-1.28 0c-1.28 0-1.28 1.28-2.56 1.28-1.28 0-1.28 1.28-2.56 1.28 0 0-1.28 0-1.28 0l-1.28 0c-1.28 0-2.56 0-2.56 1.28-1.28 0-2.56 0-2.56 0l0 0 0 2.56c-1.28 0 1.28 2.56 1.28 2.56l0 0L371.2 343.04l-2.56-1.28-2.56-1.28-1.28 0c0 0-1.28 0-1.28 0l0 0-1.28 0c-1.28 0-1.28 0-2.56-1.28-1.28 0-1.28-1.28-2.56-1.28-7.68-3.84-12.8-11.52-16.64-21.76-1.28-2.56-1.28-5.12-2.56-7.68 0-2.56-1.28-5.12-1.28-7.68 0-5.12 0-11.52 1.28-16.64 0-2.56 1.28-6.4 1.28-8.96l1.28-3.84c0-1.28 1.28-2.56 1.28-3.84 1.28-5.12 3.84-10.24 7.68-15.36 1.28-2.56 2.56-5.12 5.12-6.4 1.28-1.28 1.28-2.56 2.56-3.84l2.56-2.56c1.28-1.28 1.28-2.56 2.56-2.56 1.28-1.28 1.28-2.56 2.56-2.56 2.56-1.28 3.84-3.84 6.4-5.12 2.56-1.28 3.84-2.56 6.4-3.84 1.28 0 2.56-1.28 3.84-1.28l1.28-1.28c0 0 1.28 0 1.28 0 1.28 0 2.56-1.28 3.84-1.28 1.28 0 2.56 0 3.84 0 1.28 0 2.56 0 3.84 0l1.28-1.28 0-1.28 0 0 1.28 1.28c1.28 0 2.56 1.28 3.84 1.28 1.28 0 1.28 1.28 2.56 1.28 0 0 1.28 0 1.28 0l1.28 1.28c1.28 0 1.28 1.28 2.56 1.28 3.84 1.28 6.4 5.12 8.96 7.68 5.12 6.4 6.4 12.8 7.68 19.2C430.08 256 430.08 261.12 430.08 266.24z" p-id="10140"></path><path d="M359.68 285.44a1.4 1.5 0 1 0 35.84 0 1.4 1.5 0 1 0-35.84 0Z" p-id="10141"></path><path d="M628.48 285.44a1.4 1.5 0 1 0 35.84 0 1.4 1.5 0 1 0-35.84 0Z" p-id="10142"></path><path d="M545.28 601.6c-19.2 0-49.92 0-70.4 0-26.88 0-39.68 21.76-21.76 46.08 17.92 23.04 43.52 32 55.04 32 12.8 0 39.68-5.12 55.04-34.56C579.84 615.68 564.48 601.6 545.28 601.6z" p-id="10143"></path></svg>